<svg xmlns="http://www.w3.org/2000/svg" width="30" height="29.993" viewBox="0 0 30 29.993">
  <path id="instagram-brands" d="M14.928,39.132a7.69,7.69,0,1,0,7.69,7.69A7.678,7.678,0,0,0,14.928,39.132Zm0,12.689a5,5,0,1,1,5-5,5.009,5.009,0,0,1-5,5Zm9.8-13a1.794,1.794,0,1,1-1.794-1.794A1.789,1.789,0,0,1,24.726,38.817Zm5.093,1.82A8.876,8.876,0,0,0,27.4,34.353a8.935,8.935,0,0,0-6.284-2.423c-2.476-.141-9.9-.141-12.375,0a8.922,8.922,0,0,0-6.284,2.416A8.9,8.9,0,0,0,.03,40.631c-.141,2.476-.141,9.9,0,12.375A8.876,8.876,0,0,0,2.453,59.29a8.946,8.946,0,0,0,6.284,2.423c2.476.141,9.9.141,12.375,0A8.876,8.876,0,0,0,27.4,59.29a8.935,8.935,0,0,0,2.423-6.284C29.96,50.529,29.96,43.114,29.82,40.638Zm-3.2,15.025a5.062,5.062,0,0,1-2.851,2.851c-1.974.783-6.659.6-8.841.6s-6.873.174-8.841-.6a5.061,5.061,0,0,1-2.851-2.851c-.783-1.974-.6-6.659-.6-8.841s-.174-6.873.6-8.841A5.062,5.062,0,0,1,6.087,35.13c1.974-.783,6.659-.6,8.841-.6s6.873-.174,8.841.6a5.062,5.062,0,0,1,2.851,2.851c.783,1.974.6,6.659.6,8.841S27.4,53.7,26.62,55.663Z" transform="translate(0.075 -31.825)" fill="#887559"/>
</svg>
